<svg width="144" height="41" viewBox="0 0 144 41" fill="none" xmlns="http://www.w3.org/2000/svg">
<rect y="21.8667" width="143.284" height="19.1333" fill="url(#paint0_linear_3304_18629)"/>
<path d="M1.222 13V3.9H2.613L6.591 10.543H5.863L9.776 3.9H11.167L11.18 13H9.581L9.568 6.409H9.906L6.578 11.96H5.824L2.444 6.409H2.834V13H1.222ZM14.262 13V6.058H15.887V13H14.262ZM15.081 4.914C14.7777 4.914 14.5263 4.81867 14.327 4.628C14.1363 4.43733 14.041 4.20767 14.041 3.939C14.041 3.66167 14.1363 3.432 14.327 3.25C14.5263 3.05933 14.7777 2.964 15.081 2.964C15.3843 2.964 15.6313 3.055 15.822 3.237C16.0213 3.41033 16.121 3.63133 16.121 3.9C16.121 4.186 16.0257 4.42867 15.835 4.628C15.6443 4.81867 15.393 4.914 15.081 4.914ZM22.7388 5.98C23.2935 5.98 23.7875 6.08833 24.2208 6.305C24.6628 6.52167 25.0095 6.85533 25.2608 7.306C25.5122 7.748 25.6378 8.32 25.6378 9.022V13H24.0128V9.23C24.0128 8.61467 23.8655 8.15533 23.5708 7.852C23.2848 7.54867 22.8818 7.397 22.3618 7.397C21.9805 7.397 21.6425 7.475 21.3478 7.631C21.0532 7.787 20.8235 8.021 20.6588 8.333C20.5028 8.63633 20.4248 9.022 20.4248 9.49V13H18.7998V6.058H20.3468V7.93L20.0738 7.358C20.3165 6.916 20.6675 6.578 21.1268 6.344C21.5948 6.10133 22.1322 5.98 22.7388 5.98Z" fill="#F1F1F1"/>
<path d="M115.897 13V3.9H117.288L121.266 10.543H120.538L124.451 3.9H125.842L125.855 13H124.256L124.243 6.409H124.581L121.253 11.96H120.499L117.119 6.409H117.509V13H115.897ZM133.214 13V11.596L133.123 11.297V8.84C133.123 8.36333 132.98 7.995 132.694 7.735C132.408 7.46633 131.975 7.332 131.394 7.332C131.004 7.332 130.619 7.39267 130.237 7.514C129.865 7.63533 129.548 7.80433 129.288 8.021L128.651 6.838C129.024 6.552 129.466 6.33967 129.977 6.201C130.497 6.05367 131.035 5.98 131.589 5.98C132.595 5.98 133.37 6.22267 133.916 6.708C134.471 7.18467 134.748 7.92567 134.748 8.931V13H133.214ZM131.03 13.091C130.51 13.091 130.055 13.0043 129.665 12.831C129.275 12.649 128.972 12.402 128.755 12.09C128.547 11.7693 128.443 11.4097 128.443 11.011C128.443 10.621 128.534 10.27 128.716 9.958C128.907 9.646 129.215 9.399 129.639 9.217C130.064 9.035 130.627 8.944 131.329 8.944H133.344V10.023H131.446C130.892 10.023 130.519 10.114 130.328 10.296C130.138 10.4693 130.042 10.686 130.042 10.946C130.042 11.2407 130.159 11.4747 130.393 11.648C130.627 11.8213 130.952 11.908 131.368 11.908C131.767 11.908 132.122 11.817 132.434 11.635C132.755 11.453 132.985 11.1843 133.123 10.829L133.396 11.804C133.24 12.2113 132.959 12.5277 132.551 12.753C132.153 12.9783 131.646 13.091 131.03 13.091ZM136.665 13L139.72 9.022L139.694 9.893L136.782 6.058H138.589L140.63 8.788H139.941L141.995 6.058H143.75L140.812 9.893L140.825 9.022L143.867 13H142.034L139.889 10.101L140.565 10.192L138.459 13H136.665Z" fill="#F1F1F1"/>
<defs>
<linearGradient id="paint0_linear_3304_18629" x1="143.284" y1="31.3234" x2="14.062" y2="61.3056" gradientUnits="userSpaceOnUse">
<stop stop-color="#59B7C8"/>
<stop offset="1" stop-color="#2A3B57"/>
</linearGradient>
</defs>
</svg>
