<svg width="250" height="200" viewBox="0 0 250 200" fill="none" xmlns="http://www.w3.org/2000/svg">
<g id="Velocimetro" clip-path="url(#clip0_3376_92)">
<rect width="250" height="200" fill="#3F1859"/>
<g id="marcadores">
<path id="marcador" fill-rule="evenodd" clip-rule="evenodd" d="M128.452 22.0096L127.904 22L127.745 31.131L128.293 31.1406L128.452 22.0096ZM123.671 22.0219L123.123 22.041L123.442 31.1679L123.989 31.1488L123.671 22.0219ZM118.897 22.2858L118.351 22.3335L119.147 31.4312L119.693 31.3835L118.897 22.2858ZM113.601 22.874L114.143 22.7977L115.414 31.8413L114.872 31.9175L113.601 22.874ZM109.423 23.5596L108.885 23.6642L110.628 32.6288L111.165 32.5242L109.423 23.5596ZM104.217 24.6987L104.749 24.5661L106.958 33.4273L106.426 33.5599L104.217 24.6987ZM100.134 25.8156L99.6099 25.9758L102.28 34.7092L102.804 34.549L100.134 25.8156ZM95.0758 27.4937L95.5907 27.3063L98.7141 35.888L98.1992 36.0754L95.0758 27.4937ZM91.1314 29.0312L90.6271 29.2453L94.1954 37.6517L94.6998 37.4376L91.1314 29.0312ZM86.2767 31.2287L86.7692 30.9885L90.7725 39.1967L90.2801 39.4369L86.2767 31.2287ZM82.5148 33.1713L82.0355 33.4369L86.463 41.4243L86.9423 41.1587L82.5148 33.1713ZM77.9159 35.8627L78.3806 35.5724L83.22 43.3171L82.7554 43.6075L77.9159 35.8627ZM74.378 38.1883L73.9292 38.5026L79.1673 45.9834L79.6162 45.6691L74.378 38.1883ZM70.0856 41.3457L70.5174 41.0084L76.1398 48.2048L75.708 48.5422L70.0856 41.3457ZM66.8098 44.0274L66.3963 44.3869L72.3877 51.2792L72.8012 50.9198L66.8098 44.0274ZM62.8713 47.6172L63.2654 47.2365L69.6093 53.8058L69.2152 54.1865L62.8713 47.6172ZM59.8939 50.6268L59.5202 51.0275L66.1992 57.2558L66.5729 56.8551L59.8939 50.6268ZM56.3522 54.6074L56.7044 54.1876L63.7002 60.0578L63.348 60.4776L56.3522 54.6074ZM53.7054 57.9119L53.3757 58.3495L60.6691 63.8456L60.9989 63.4079L53.7054 57.9119ZM50.5994 62.2433L50.9058 61.789L58.4769 66.8958L58.1705 67.3501L50.5994 62.2433ZM48.3126 65.8047L48.0304 66.2744L55.8584 70.9779L56.1406 70.5083L48.3126 65.8047ZM45.676 70.4357L45.9332 69.9519L53.9967 74.2393L53.7394 74.7231L45.676 70.4357ZM43.7743 74.2181L43.5427 74.7148L51.8195 78.5743L52.051 78.0777L43.7743 74.2181ZM41.6362 79.099L41.8414 78.591L50.3089 82.012L50.1036 82.5201L41.6362 79.099ZM40.1399 83.0597L39.9615 83.5778L48.5964 86.5511L48.7748 86.033L40.1399 83.0597ZM38.5239 88.1387L38.6749 87.612L47.4536 90.1292L47.3025 90.6559L38.5239 88.1387ZM37.4503 92.2334L37.327 92.7673L46.2254 94.8217L46.3486 94.2878L37.4503 92.2334ZM36.3737 97.4513L36.4688 96.9117L45.4625 98.4975L45.3673 99.0371L36.3737 97.4513ZM35.7339 101.636L35.6671 102.18L44.7314 103.293L44.7982 102.749L35.7339 101.636ZM35.2087 106.94L35.2469 106.394L44.3571 107.031L44.3189 107.577L35.2087 106.94ZM35.0096 111.169L35 111.717L44.131 111.876L44.1406 111.329L35.0096 111.169ZM35.0419 116.497L35.0228 115.95L44.1497 115.631L44.1688 116.179L35.0419 116.497ZM35.286 120.725L35.3338 121.27L44.4314 120.475L44.3837 119.929L35.286 120.725ZM35.8751 126.02L35.7989 125.478L44.8424 124.207L44.9187 124.749L35.8751 126.02ZM36.5596 130.199L36.6642 130.736L45.6288 128.994L45.5242 128.456L36.5596 130.199ZM37.6989 135.404L37.5664 134.873L46.4275 132.663L46.5601 133.195L37.6989 135.404ZM38.8165 139.488L38.9767 140.012L47.7101 137.342L47.5499 136.817L38.8165 139.488ZM40.4937 144.546L40.3063 144.031L48.888 140.907L49.0754 141.422L40.4937 144.546ZM42.0319 148.49L42.246 148.994L50.6524 145.426L50.4383 144.921L42.0319 148.49ZM44.229 153.345L43.9888 152.852L52.1969 148.849L52.4371 149.341L44.229 153.345ZM46.1708 157.105L46.4365 157.584L54.4239 153.157L54.1582 152.678L46.1708 157.105ZM48.8632 161.705L48.5728 161.24L56.3175 156.401L56.6079 156.865L48.8632 161.705ZM51.1878 165.242L51.5021 165.691L58.983 160.453L58.6687 160.004L51.1878 165.242ZM54.346 169.535L54.0086 169.103L61.2051 163.481L61.5424 163.912L54.346 169.535ZM49.8379 178.537L50.1974 178.951L63.982 166.968L63.6225 166.555L49.8379 178.537ZM198.275 57.0849L198.612 57.5167L191.416 63.1392L191.078 62.7074L198.275 57.0849ZM195.593 53.8098L195.234 53.3963L188.341 59.3877L188.701 59.8012L195.593 53.8098ZM192.004 49.8717L192.384 50.2659L185.815 56.6098L185.434 56.2156L192.004 49.8717ZM188.994 46.8939L188.593 46.5202L182.365 53.1992L182.766 53.5729L188.994 46.8939ZM185.012 43.3524L185.432 43.7046L179.562 50.7004L179.142 50.3482L185.012 43.3524ZM181.708 40.7052L181.271 40.3754L175.775 47.6689L176.212 47.9987L181.708 40.7052ZM177.378 37.5982L177.833 37.9047L172.726 45.4758L172.272 45.1694L177.378 37.5982ZM173.816 35.312L173.346 35.0298L168.642 42.8578L169.112 43.14L173.816 35.312ZM169.185 32.6753L169.668 32.9325L165.381 40.996L164.897 40.7387L169.185 32.6753ZM165.402 30.7736L164.906 30.542L161.046 38.8188L161.543 39.0504L165.402 30.7736ZM160.521 28.6353L161.029 28.8405L157.608 37.308L157.1 37.1027L160.521 28.6353ZM156.561 27.1406L156.043 26.9622L153.07 35.5971L153.588 35.7755L156.561 27.1406ZM151.483 25.5245L152.009 25.6756L149.492 34.4542L148.965 34.3032L151.483 25.5245ZM147.388 24.4492L146.854 24.3259L144.8 33.2243L145.333 33.3475L147.388 24.4492ZM142.169 23.3734L142.708 23.4686L141.123 32.4623L140.583 32.3671L142.169 23.3734ZM137.984 22.7339L137.44 22.6671L136.327 31.7314L136.871 31.7982L137.984 22.7339ZM132.681 22.2087L133.228 22.2469L132.591 31.3571L132.044 31.3189L132.681 22.2087Z" fill="#B7A2C3"/>
<path id="marcador_maximo" fill-rule="evenodd" clip-rule="evenodd" d="M209.638 56.8979L208.852 55.7758L193.891 66.252L194.676 67.3742L209.638 56.8979ZM203.758 64.9153L204.484 66.077L196.739 70.9165L196.013 69.7548L203.758 64.9153ZM206.848 70.2337L206.184 69.0356L198.197 73.4631L198.861 74.6612L206.848 70.2337ZM208.392 73.2754L208.993 74.5066L200.784 78.51L200.184 77.2788L208.392 73.2754ZM210.91 78.8885L210.375 77.6276L201.969 81.1959L202.504 82.4569L210.91 78.8885ZM212.127 82.0761L212.596 83.3633L204.014 86.4868L203.546 85.1995L212.127 82.0761ZM214.045 87.9202L213.644 86.6102L204.911 89.2802L205.311 90.5902L214.045 87.9202ZM214.922 91.2174L215.253 92.5466L206.392 94.7559L206.061 93.4267L214.922 91.2174ZM216.218 97.23L215.957 95.8853L206.992 97.6278L207.254 98.9725L216.218 97.23ZM216.746 100.6L216.937 101.956L207.893 103.227L207.702 101.871L216.746 100.6ZM217.407 106.716L217.287 105.351L208.19 106.147L208.309 107.512L217.407 106.716ZM217.579 110.123L217.627 111.492L208.5 111.81L208.452 110.441L217.579 110.123ZM217.597 116.274L217.621 114.905L208.49 114.745L208.466 116.115L217.597 116.274ZM217.412 119.681L217.317 121.048L208.206 120.411L208.302 119.044L217.412 119.681ZM216.787 125.8L216.954 124.44L207.89 123.327L207.723 124.687L216.787 125.8ZM216.247 129.169L216.009 130.518L207.016 128.932L207.253 127.583L216.247 129.169ZM214.986 135.189L215.294 133.854L206.396 131.8L206.087 133.135L214.986 135.189ZM214.097 138.483L213.719 139.8L204.941 137.283L205.318 135.966L214.097 138.483ZM212.213 144.337L212.659 143.042L204.024 140.069L203.578 141.364L212.213 144.337ZM210.985 147.521L210.472 148.791L202.004 145.37L202.517 144.1L210.985 147.521ZM208.499 153.147L209.078 151.905L200.802 148.046L200.223 149.287L208.499 153.147ZM206.945 156.184L206.302 157.394L198.239 153.106L198.882 151.897L206.945 156.184ZM203.885 161.52L204.591 160.346L196.763 155.642L196.057 156.816L203.885 161.52ZM202.022 164.378L201.256 165.514L193.685 160.407L194.451 159.272L202.022 164.378ZM198.421 169.364L199.245 168.27L191.952 162.774L191.127 163.868L198.421 169.364ZM201.788 179.406L202.696 178.38L189.016 166.278L188.109 167.304L201.788 179.406Z" fill="#AA700D"/>
</g>
<g id="ponteiro">
<circle id="circ_giro" cx="126.507" cy="113.504" r="91.5" fill="#3ADEFD" fill-opacity="0.1"/>
<path id="seta" d="M66.4907 166.897C65.8357 166.988 65.3045 166.374 65.4884 165.739L71.9101 143.559C72.3576 142.013 74.4489 141.752 75.2733 143.133C77.2674 146.476 80.102 151.102 81.3931 152.619C82.719 154.176 86.8699 158.01 89.7533 160.628C90.9069 161.676 90.316 163.604 88.7724 163.817L66.4907 166.897Z" fill="#AA700D"/>
</g>
<g id="numeros">
<text id="0" fill="#B7A2C3" xml:space="preserve" style="white-space: pre" font-family="Montserrat" font-size="15.015" font-weight="600" letter-spacing="0em"><tspan x="34" y="188.383">0</tspan></text>
<text id="20" fill="#B7A2C3" xml:space="preserve" style="white-space: pre" font-family="Montserrat" font-size="15.015" font-weight="600" letter-spacing="0em"><tspan x="12" y="126.383">20</tspan></text>
<text id="40" fill="#B7A2C3" xml:space="preserve" style="white-space: pre" font-family="Montserrat" font-size="15.015" font-weight="600" letter-spacing="0em"><tspan x="26" y="62.3829">40</tspan></text>
<text id="60" fill="#B7A2C3" xml:space="preserve" style="white-space: pre" font-family="Montserrat" font-size="15.015" font-weight="600" letter-spacing="0em"><tspan x="81" y="21.3829">60</tspan></text>
<text id="80" fill="#B7A2C3" xml:space="preserve" style="white-space: pre" font-family="Montserrat" font-size="15.015" font-weight="600" letter-spacing="0em"><tspan x="150" y="19.3829">80</tspan></text>
<text id="100" fill="#B7A2C3" xml:space="preserve" style="white-space: pre" font-family="Montserrat" font-size="15.015" font-weight="600" letter-spacing="0em"><tspan x="211" y="57.3829">100</tspan></text>
<text id="MAX" fill="#AA700D" xml:space="preserve" style="white-space: pre" font-family="Montserrat" font-size="15.015" font-weight="600" letter-spacing="0em"><tspan x="205" y="188.383">MAX</tspan></text>
</g>
<text id="rot_dados" fill="#AA700D" xml:space="preserve" style="white-space: pre" font-family="Montserrat" font-size="30" font-weight="600" letter-spacing="0em"><tspan x="83" y="129.255">190%</tspan></text>
<text id="rot_catgoria" fill="#B7A2C3" xml:space="preserve" style="white-space: pre" font-family="Montserrat" font-size="13" font-weight="600" letter-spacing="0em"><tspan x="96" y="95.6605">Meta (%)</tspan></text>
<path id="Contorno_interno" d="M162.459 162.154C172.619 154.645 180.174 144.143 184.063 132.123C187.952 120.102 187.98 107.165 184.143 95.1275C180.306 83.09 172.797 72.5556 162.669 65.0024C152.542 57.4491 140.303 53.256 127.672 53.0113C115.04 52.7667 102.648 56.4827 92.2357 63.6381C81.8231 70.7935 73.9118 81.0292 69.6118 92.9091C65.3118 104.789 64.8389 117.717 68.2594 129.879C71.6799 142.042 78.8222 152.828 88.6842 160.725L89.5723 159.616C79.9419 151.905 72.9673 141.372 69.6272 129.495C66.287 117.618 66.7488 104.994 70.9478 93.3927C75.1468 81.7917 82.8723 71.7964 93.0404 64.8091C103.208 57.8217 115.309 54.1929 127.644 54.4319C139.979 54.6708 151.93 58.7654 161.82 66.1413C171.71 73.5172 179.043 83.8042 182.789 95.559C186.536 107.314 186.508 119.947 182.711 131.685C178.913 143.424 171.536 153.679 161.614 161.012L162.459 162.154Z" fill="#AA700D"/>
</g>
<defs>
<clipPath id="clip0_3376_92">
<rect width="250" height="200" fill="white"/>
</clipPath>
</defs>
</svg>
