<svg width="1280" height="720" viewBox="0 0 1280 720" fill="none" xmlns="http://www.w3.org/2000/svg">
<g id="ranking_v1" clip-path="url(#clip0_56_72)">
<rect width="1280" height="720" fill="#411C52"/>
<line id="linha_menu_3" x1="211" x2="211" y2="720" stroke="#C4C4C4" stroke-opacity="0.15" stroke-width="2"/>
<line id="linha_menu_2" x1="24" y1="329.5" x2="185" y2="329.5" stroke="#C4C4C4" stroke-opacity="0.15"/>
<line id="linha_menu_1" x1="24" y1="138.5" x2="185" y2="138.5" stroke="#C4C4C4" stroke-opacity="0.15"/>
<g id="podium_3">
<rect id="quadro supervisor" x="759.429" y="679" width="138.429" height="100" rx="10" transform="rotate(-180 759.429 679)" fill="#63B3D9" fill-opacity="0.15"/>
<rect id="quadro supervisor_2" x="766.667" y="666.667" width="136.333" height="129.333" rx="9.66667" transform="rotate(-180 766.667 666.667)" stroke="#2C628D" stroke-width="0.666667" stroke-dasharray="3.33 3.33"/>
<path id="3" opacity="0.8" d="M687.754 622.027H690.957C691.777 622.027 692.448 621.884 692.969 621.598C693.503 621.298 693.9 620.882 694.16 620.348C694.421 619.801 694.551 619.156 694.551 618.414C694.551 617.841 694.427 617.314 694.18 616.832C693.945 616.35 693.581 615.966 693.086 615.68C692.591 615.38 691.96 615.23 691.191 615.23C690.671 615.23 690.163 615.341 689.668 615.562C689.173 615.771 688.763 616.07 688.438 616.461C688.125 616.852 687.969 617.327 687.969 617.887H681.367C681.367 616.272 681.81 614.892 682.695 613.746C683.594 612.587 684.772 611.702 686.23 611.09C687.702 610.465 689.284 610.152 690.977 610.152C692.995 610.152 694.766 610.465 696.289 611.09C697.812 611.702 698.997 612.613 699.844 613.824C700.703 615.022 701.133 616.507 701.133 618.277C701.133 619.254 700.905 620.172 700.449 621.031C699.993 621.891 699.355 622.646 698.535 623.297C697.715 623.948 696.751 624.462 695.645 624.84C694.551 625.204 693.353 625.387 692.051 625.387H687.754V622.027ZM687.754 626.93V623.648H692.051C693.47 623.648 694.766 623.811 695.938 624.137C697.109 624.449 698.118 624.918 698.965 625.543C699.811 626.168 700.462 626.943 700.918 627.867C701.374 628.779 701.602 629.827 701.602 631.012C701.602 632.34 701.335 633.525 700.801 634.566C700.267 635.608 699.518 636.487 698.555 637.203C697.591 637.919 696.465 638.466 695.176 638.844C693.887 639.208 692.487 639.391 690.977 639.391C689.792 639.391 688.607 639.234 687.422 638.922C686.237 638.596 685.156 638.102 684.18 637.438C683.203 636.76 682.415 635.901 681.816 634.859C681.23 633.805 680.938 632.548 680.938 631.09H687.539C687.539 631.689 687.702 632.236 688.027 632.73C688.366 633.212 688.815 633.596 689.375 633.883C689.935 634.169 690.54 634.312 691.191 634.312C691.999 634.312 692.682 634.163 693.242 633.863C693.815 633.551 694.251 633.134 694.551 632.613C694.85 632.092 695 631.513 695 630.875C695 629.911 694.837 629.143 694.512 628.57C694.199 627.997 693.737 627.581 693.125 627.32C692.526 627.06 691.803 626.93 690.957 626.93H687.754Z" fill="#F1F1F1"/>
</g>
<g id="podium_2">
<rect id="quadro supervisor_3" x="381.429" y="679" width="138.429" height="100" rx="10" transform="rotate(-180 381.429 679)" fill="#63B3D9" fill-opacity="0.15"/>
<rect id="quadro supervisor_4" x="388.667" y="666.667" width="136.333" height="129.333" rx="9.66667" transform="rotate(-180 388.667 666.667)" stroke="#2C628D" stroke-width="0.666667" stroke-dasharray="3.33 3.33"/>
<path id="2" opacity="0.8" d="M323.602 633.922V639H303.758V634.703L312.898 625.094C313.706 624.169 314.357 623.342 314.852 622.613C315.346 621.871 315.704 621.201 315.926 620.602C316.16 620.003 316.277 619.462 316.277 618.98C316.277 618.16 316.154 617.477 315.906 616.93C315.672 616.37 315.32 615.947 314.852 615.66C314.396 615.374 313.829 615.23 313.152 615.23C312.475 615.23 311.883 615.426 311.375 615.816C310.867 616.207 310.47 616.741 310.184 617.418C309.91 618.095 309.773 618.857 309.773 619.703H303.172C303.172 617.958 303.595 616.363 304.441 614.918C305.301 613.473 306.492 612.32 308.016 611.461C309.539 610.589 311.303 610.152 313.309 610.152C315.405 610.152 317.163 610.478 318.582 611.129C320.001 611.78 321.069 612.724 321.785 613.961C322.514 615.185 322.879 616.663 322.879 618.395C322.879 619.384 322.723 620.335 322.41 621.246C322.098 622.158 321.648 623.062 321.062 623.961C320.477 624.846 319.76 625.758 318.914 626.695C318.081 627.633 317.13 628.629 316.062 629.684L312.391 633.922H323.602Z" fill="#F1F1F1"/>
</g>
<g id="podium_1">
<rect id="quadro supervisor_5" x="568.429" y="679" width="138.429" height="150" rx="10" transform="rotate(-180 568.429 679)" fill="#63B3D9" fill-opacity="0.15"/>
<rect id="quadro supervisor_6" x="578.667" y="659.667" width="137.333" height="175.333" rx="9.66667" transform="rotate(-180 578.667 659.667)" stroke="#2C628D" stroke-width="0.666667" stroke-dasharray="3.33 3.33"/>
<path id="1" opacity="0.8" d="M509.326 545.562V574H502.744V552.984L496.259 554.879V549.879L508.72 545.562H509.326Z" fill="#F1F1F1"/>
<g id="trofeu">
<path id="Vector" d="M486.985 591C486.985 594.213 486.985 603.207 486.985 607.062C486.985 620.233 498.626 625.373 504.975 625.373C511.324 625.373 522.964 620.233 522.964 607.062C522.964 603.207 522.964 594.213 522.964 591H486.985ZM505.009 596.924L497.021 600.412V611.952L497.015 614.241C496.953 614.228 491.475 613.056 491.475 605.055C491.475 601.753 491.475 596.898 491.475 596.898H498.551L505.009 596.924Z" fill="#F1F1F1" fill-opacity="0.1"/>
<path id="Vector_2" d="M511.944 637.959L509.156 634.064L507.763 628.324L504.975 628.734L502.187 628.324L500.793 634.064L499.039 636.514L498.005 637.93H498.026L498.005 637.959H511.944Z" fill="#F1F1F1" fill-opacity="0.1"/>
<path id="Vector_3" d="M517.975 641.654V641.626H491.976V650.954V650.972V651.001H517.975V641.673V641.654Z" fill="#F1F1F1" fill-opacity="0.1"/>
<path id="Vector_4" d="M534.933 602.329C534.929 602.18 534.925 602.055 534.925 601.957V596.286H526.266V600.825H530.386V601.957C530.386 602.089 530.39 602.257 530.396 602.456C530.441 604.094 530.548 607.929 527.871 610.683C527.271 611.3 526.556 611.83 525.736 612.278C525.281 614.345 524.551 616.211 523.614 617.881C526.727 617.131 529.242 615.784 531.126 613.848C535.14 609.719 534.99 604.35 534.933 602.329Z" fill="#F1F1F1" fill-opacity="0.1"/>
<path id="Vector_5" d="M482.08 610.683C479.402 607.929 479.509 604.094 479.555 602.456C479.561 602.257 479.565 602.089 479.565 601.957V600.825H483.648H483.656H483.684V596.286H475.025V601.957C475.025 602.055 475.022 602.18 475.018 602.329C474.961 604.35 474.811 609.719 478.825 613.848C480.708 615.784 483.224 617.131 486.336 617.881C485.399 616.212 484.67 614.345 484.215 612.278C483.395 611.83 482.68 611.3 482.08 610.683Z" fill="#F1F1F1" fill-opacity="0.1"/>
</g>
</g>
<g id="quadro_4">
<rect x="230" y="256" width="550" height="444" rx="10" fill="url(#paint0_linear_56_72)"/>
<rect x="230.333" y="256.333" width="549.333" height="443.333" rx="9.66661" stroke="#59B7C8" stroke-opacity="0.3" stroke-width="0.666783"/>
</g>
<g id="quadro_3">
<rect x="610" y="70" width="170" height="166" rx="10" fill="url(#paint1_linear_56_72)"/>
<rect x="610.333" y="70.3334" width="169.333" height="165.333" rx="9.66661" stroke="#59B7C8" stroke-opacity="0.3" stroke-width="0.666783"/>
</g>
<g id="quadro_2">
<rect x="420" y="70" width="170" height="166" rx="10" fill="url(#paint2_linear_56_72)"/>
<rect x="420.333" y="70.3334" width="169.333" height="165.333" rx="9.66661" stroke="#59B7C8" stroke-opacity="0.3" stroke-width="0.666783"/>
</g>
<g id="quadro_1">
<rect x="230" y="70" width="170" height="166" rx="10" fill="url(#paint3_linear_56_72)"/>
<rect x="230.333" y="70.3334" width="169.333" height="165.333" rx="9.66661" stroke="#59B7C8" stroke-opacity="0.3" stroke-width="0.666783"/>
</g>
<rect id="imagem_fundo" y="-185" width="1286" height="905"/>
</g>
<defs>
<linearGradient id="paint0_linear_56_72" x1="230" y1="256" x2="357.908" y2="799.361" gradientUnits="userSpaceOnUse">
<stop stop-color="#3F1260" stop-opacity="0.5"/>
<stop offset="0.510417" stop-color="#3F1260" stop-opacity="0.5"/>
<stop offset="1" stop-color="#3F1260" stop-opacity="0.3"/>
</linearGradient>
<linearGradient id="paint1_linear_56_72" x1="610" y1="70" x2="666.471" y2="268.326" gradientUnits="userSpaceOnUse">
<stop stop-color="#3F1260" stop-opacity="0.5"/>
<stop offset="0.510417" stop-color="#3F1260" stop-opacity="0.5"/>
<stop offset="1" stop-color="#3F1260" stop-opacity="0.3"/>
</linearGradient>
<linearGradient id="paint2_linear_56_72" x1="420" y1="70" x2="476.471" y2="268.326" gradientUnits="userSpaceOnUse">
<stop stop-color="#3F1260" stop-opacity="0.5"/>
<stop offset="0.510417" stop-color="#3F1260" stop-opacity="0.5"/>
<stop offset="1" stop-color="#3F1260" stop-opacity="0.3"/>
</linearGradient>
<linearGradient id="paint3_linear_56_72" x1="230" y1="70" x2="286.471" y2="268.326" gradientUnits="userSpaceOnUse">
<stop stop-color="#3F1260" stop-opacity="0.5"/>
<stop offset="0.510417" stop-color="#3F1260" stop-opacity="0.5"/>
<stop offset="1" stop-color="#3F1260" stop-opacity="0.3"/>
</linearGradient>
<clipPath id="clip0_56_72">
<rect width="1280" height="720" fill="white"/>
</clipPath>
</defs>
</svg>
