<svg width="1280" height="720" viewBox="0 0 1280 720" fill="none" xmlns="http://www.w3.org/2000/svg">
<g id="ranking_v1_v2" clip-path="url(#clip0_56_102)">
<rect width="1280" height="720" fill="#411C52"/>
<line id="linha_menu_3" x1="211" x2="211" y2="720" stroke="#C4C4C4" stroke-opacity="0.15" stroke-width="2"/>
<line id="linha_menu_2" x1="24" y1="329.5" x2="185" y2="329.5" stroke="#C4C4C4" stroke-opacity="0.15"/>
<line id="linha_menu_1" x1="24" y1="138.5" x2="185" y2="138.5" stroke="#C4C4C4" stroke-opacity="0.15"/>
<g id="quadro_4">
<rect x="230" y="256" width="550" height="444" rx="10" fill="url(#paint0_linear_56_102)"/>
<rect x="230.333" y="256.333" width="549.333" height="443.333" rx="9.66661" stroke="#59B7C8" stroke-opacity="0.3" stroke-width="0.666783"/>
</g>
<g id="quadro_3">
<rect x="610" y="70" width="170" height="166" rx="10" fill="url(#paint1_linear_56_102)"/>
<rect x="610.333" y="70.3334" width="169.333" height="165.333" rx="9.66661" stroke="#59B7C8" stroke-opacity="0.3" stroke-width="0.666783"/>
</g>
<g id="quadro_2">
<rect x="420" y="70" width="170" height="166" rx="10" fill="url(#paint2_linear_56_102)"/>
<rect x="420.333" y="70.3334" width="169.333" height="165.333" rx="9.66661" stroke="#59B7C8" stroke-opacity="0.3" stroke-width="0.666783"/>
</g>
<g id="quadro_1">
<rect x="230" y="70" width="170" height="166" rx="10" fill="url(#paint3_linear_56_102)"/>
<rect x="230.333" y="70.3334" width="169.333" height="165.333" rx="9.66661" stroke="#59B7C8" stroke-opacity="0.3" stroke-width="0.666783"/>
</g>
<rect id="imagem_fundo" y="-185" width="1286" height="905"/>
<g id="podium">
<g id="rank_1" clip-path="url(#clip1_56_102)">
<g id="Rectangle 5414" filter="url(#filter0_d_56_102)">
<path d="M259.56 499.281C259.56 489.583 267.421 481.722 277.119 481.722H356.136C365.834 481.722 373.695 489.583 373.695 499.281V613.416H259.56V499.281Z" fill="#3A1453"/>
<path d="M277.119 482.222H356.136C365.557 482.222 373.195 489.86 373.195 499.281V612.917H260.06V499.281C260.06 489.86 267.698 482.222 277.119 482.222Z" stroke="#59B7C8" stroke-opacity="0.15"/>
</g>
<rect id="Rectangle 5415" x="259.56" y="516.84" width="114.136" height="26.339" fill="#264C6A"/>
<g id="faixa">
<rect x="259.56" y="516.84" width="114.136" height="26.339" fill="url(#paint4_linear_56_102)"/>
<rect x="259.56" y="516.84" width="114.136" height="26.339" fill="url(#paint5_linear_56_102)"/>
</g>
<g id="faixa_lad_2">
<path id="Rectangle 5417" d="M373.695 508.061H378.085C380.51 508.061 382.475 510.026 382.475 512.451V547.569C382.475 549.994 380.51 551.959 378.085 551.959H373.695V508.061Z" fill="url(#paint6_linear_56_102)"/>
<path id="Rectangle 5418" d="M373.695 508.061H378.085C380.51 508.061 382.475 510.026 382.475 512.451V512.451C382.475 514.875 380.51 516.841 378.085 516.841H373.695V508.061Z" fill="#270C38"/>
<path id="Rectangle 5419" d="M373.695 543.18H378.085C380.51 543.18 382.475 545.145 382.475 547.569V547.569C382.475 549.994 380.51 551.959 378.085 551.959H373.695V543.18Z" fill="#270C38"/>
</g>
<g id="faixa_lad_1">
<path id="Rectangle 5417_2" d="M259.56 508.061H255.17C252.745 508.061 250.78 510.026 250.78 512.451V547.569C250.78 549.994 252.745 551.959 255.17 551.959H259.56V508.061Z" fill="url(#paint7_linear_56_102)"/>
<path id="Rectangle 5418_2" d="M259.56 508.061H255.17C252.745 508.061 250.78 510.026 250.78 512.451V512.451C250.78 514.875 252.745 516.841 255.17 516.841H259.56V508.061Z" fill="#270C38"/>
<path id="Rectangle 5419_2" d="M259.56 543.18H255.17C252.745 543.18 250.78 545.145 250.78 547.569V547.569C250.78 549.994 252.745 551.959 255.17 551.959H259.56V543.18Z" fill="#270C38"/>
</g>
</g>
<g id="rank_1_2" clip-path="url(#clip2_56_102)">
<g id="Rectangle 5414_2" filter="url(#filter1_d_56_102)">
<path d="M443.933 440.458C443.933 430.76 451.794 422.898 461.492 422.898H540.509C550.207 422.898 558.068 430.76 558.068 440.458V554.593H443.933V440.458Z" fill="#3A1453"/>
<path d="M461.492 423.398H540.509C549.93 423.398 557.568 431.036 557.568 440.458V554.094H444.433V440.458C444.433 431.036 452.071 423.398 461.492 423.398Z" stroke="#59B7C8" stroke-opacity="0.15"/>
</g>
<rect id="Rectangle 5415_2" x="443.933" y="458.017" width="114.136" height="26.339" fill="#264C6A"/>
<g id="faixa_2">
<rect x="443.933" y="458.017" width="114.136" height="26.339" fill="url(#paint8_linear_56_102)"/>
<rect x="443.933" y="458.017" width="114.136" height="26.339" fill="url(#paint9_linear_56_102)"/>
</g>
<g id="faixa_lad_2_2">
<path id="Rectangle 5417_3" d="M558.068 449.238H562.458C564.883 449.238 566.848 451.204 566.848 453.628V488.747C566.848 491.171 564.883 493.137 562.458 493.137H558.068V449.238Z" fill="url(#paint10_linear_56_102)"/>
<path id="Rectangle 5418_3" d="M558.068 449.238H562.458C564.883 449.238 566.848 451.204 566.848 453.628V453.628C566.848 456.053 564.883 458.018 562.458 458.018H558.068V449.238Z" fill="#270C38"/>
<path id="Rectangle 5419_3" d="M558.068 484.357H562.458C564.883 484.357 566.848 486.322 566.848 488.747V488.747C566.848 491.171 564.883 493.137 562.458 493.137H558.068V484.357Z" fill="#270C38"/>
</g>
<g id="faixa_lad_1_2">
<path id="Rectangle 5417_4" d="M443.933 449.238H439.543C437.118 449.238 435.153 451.204 435.153 453.628V488.747C435.153 491.171 437.118 493.137 439.543 493.137H443.933V449.238Z" fill="url(#paint11_linear_56_102)"/>
<path id="Rectangle 5418_4" d="M443.933 449.238H439.543C437.118 449.238 435.153 451.204 435.153 453.628V453.628C435.153 456.053 437.118 458.018 439.543 458.018H443.933V449.238Z" fill="#270C38"/>
<path id="Rectangle 5419_4" d="M443.933 484.357H439.543C437.118 484.357 435.153 486.322 435.153 488.747V488.747C435.153 491.171 437.118 493.137 439.543 493.137H443.933V484.357Z" fill="#270C38"/>
</g>
</g>
<g id="rank_1_3" clip-path="url(#clip3_56_102)">
<g id="Rectangle 5414_3" filter="url(#filter2_d_56_102)">
<path d="M620.403 501.037C620.403 491.339 628.265 483.478 637.963 483.478H716.98C726.677 483.478 734.539 491.339 734.539 501.037V615.172H620.403V501.037Z" fill="#3A1453"/>
<path d="M637.963 483.978H716.979C726.401 483.978 734.039 491.616 734.039 501.037V614.673H620.903V501.037C620.903 491.616 628.541 483.978 637.963 483.978Z" stroke="#59B7C8" stroke-opacity="0.15"/>
</g>
<rect id="Rectangle 5415_3" x="620.403" y="518.596" width="114.136" height="26.339" fill="#264C6A"/>
<g id="faixa_3">
<rect x="620.403" y="518.596" width="114.136" height="26.339" fill="url(#paint12_linear_56_102)"/>
<rect x="620.403" y="518.596" width="114.136" height="26.339" fill="url(#paint13_linear_56_102)"/>
</g>
<g id="faixa_lad_2_3">
<path id="Rectangle 5417_5" d="M734.539 509.817H738.929C741.353 509.817 743.319 511.782 743.319 514.207V549.326C743.319 551.75 741.353 553.715 738.929 553.715H734.539V509.817Z" fill="url(#paint14_linear_56_102)"/>
<path id="Rectangle 5418_5" d="M734.539 509.817H738.929C741.353 509.817 743.319 511.782 743.319 514.207V514.207C743.319 516.631 741.353 518.597 738.929 518.597H734.539V509.817Z" fill="#270C38"/>
<path id="Rectangle 5419_5" d="M734.539 544.936H738.929C741.353 544.936 743.319 546.901 743.319 549.326V549.326C743.319 551.75 741.353 553.715 738.929 553.715H734.539V544.936Z" fill="#270C38"/>
</g>
<g id="faixa_lad_1_3">
<path id="Rectangle 5417_6" d="M620.403 509.817H616.013C613.589 509.817 611.624 511.782 611.624 514.207V549.326C611.624 551.75 613.589 553.715 616.013 553.715H620.403V509.817Z" fill="url(#paint15_linear_56_102)"/>
<path id="Rectangle 5418_6" d="M620.403 509.817H616.013C613.589 509.817 611.624 511.782 611.624 514.207V514.207C611.624 516.631 613.589 518.597 616.013 518.597H620.403V509.817Z" fill="#270C38"/>
<path id="Rectangle 5419_6" d="M620.403 544.936H616.013C613.589 544.936 611.624 546.901 611.624 549.326V549.326C611.624 551.75 613.589 553.715 616.013 553.715H620.403V544.936Z" fill="#270C38"/>
</g>
</g>
<g id="podio">
<g id="pos_3">
<rect id="Rectangle 5412" x="250.779" y="619.124" width="219.492" height="51.361" fill="url(#paint16_linear_56_102)"/>
<path id="Rectangle 5413" d="M250.779 619.125H470.271L435.152 590.591H285.898L250.779 619.125Z" fill="url(#paint17_linear_56_102)"/>
</g>
<g id="pos_2">
<rect id="Rectangle 5412_2" x="524.705" y="619.124" width="219.492" height="51.361" fill="url(#paint18_linear_56_102)"/>
<path id="Rectangle 5413_2" d="M524.705 619.125H744.197L709.078 590.591H559.824L524.705 619.125Z" fill="url(#paint19_linear_56_102)"/>
</g>
<g id="pos_1">
<rect id="Rectangle 5412_3" x="391.254" y="576.544" width="219.492" height="102.722" fill="url(#paint20_linear_56_102)"/>
<path id="Rectangle 5413_3" d="M391.254 576.544H610.745L575.627 548.01H426.373L391.254 576.544Z" fill="url(#paint21_linear_56_102)"/>
</g>
<path id="2" opacity="0.8" d="M330 652.192V656.001H315.117V652.778L321.973 645.571C322.578 644.878 323.066 644.258 323.438 643.711C323.809 643.154 324.077 642.651 324.243 642.202C324.419 641.753 324.507 641.347 324.507 640.986C324.507 640.371 324.414 639.858 324.229 639.448C324.053 639.028 323.789 638.711 323.438 638.496C323.096 638.281 322.671 638.174 322.163 638.174C321.655 638.174 321.211 638.32 320.83 638.613C320.449 638.906 320.151 639.306 319.937 639.814C319.731 640.322 319.629 640.893 319.629 641.528H314.678C314.678 640.22 314.995 639.023 315.63 637.939C316.274 636.855 317.168 635.991 318.311 635.346C319.453 634.692 320.776 634.365 322.28 634.365C323.853 634.365 325.171 634.609 326.235 635.097C327.3 635.586 328.101 636.294 328.638 637.221C329.185 638.139 329.458 639.248 329.458 640.547C329.458 641.289 329.341 642.002 329.106 642.685C328.872 643.369 328.535 644.048 328.096 644.721C327.656 645.386 327.119 646.069 326.484 646.772C325.859 647.475 325.146 648.222 324.346 649.013L321.592 652.192H330Z" fill="#F1F1F1" fill-opacity="0.5"/>
<path id="3" opacity="0.8" d="M676.614 643.271H679.017C679.632 643.271 680.135 643.164 680.525 642.949C680.926 642.724 681.224 642.412 681.419 642.012C681.614 641.601 681.712 641.118 681.712 640.561C681.712 640.132 681.619 639.736 681.434 639.375C681.258 639.013 680.984 638.725 680.613 638.511C680.242 638.286 679.769 638.174 679.192 638.174C678.802 638.174 678.421 638.257 678.05 638.423C677.679 638.579 677.371 638.803 677.127 639.096C676.893 639.389 676.775 639.746 676.775 640.166H671.824C671.824 638.955 672.156 637.92 672.82 637.06C673.494 636.191 674.378 635.527 675.472 635.068C676.575 634.599 677.762 634.365 679.031 634.365C680.545 634.365 681.873 634.599 683.016 635.068C684.158 635.527 685.047 636.211 685.682 637.119C686.326 638.017 686.648 639.131 686.648 640.459C686.648 641.191 686.478 641.88 686.136 642.524C685.794 643.169 685.315 643.735 684.7 644.223C684.085 644.712 683.362 645.097 682.532 645.381C681.712 645.654 680.813 645.791 679.837 645.791H676.614V643.271ZM676.614 646.948V644.487H679.837C680.901 644.487 681.873 644.609 682.752 644.853C683.631 645.088 684.388 645.439 685.022 645.908C685.657 646.377 686.146 646.958 686.487 647.651C686.829 648.335 687 649.121 687 650.01C687 651.006 686.8 651.894 686.399 652.676C685.999 653.457 685.438 654.116 684.715 654.653C683.992 655.19 683.147 655.6 682.181 655.884C681.214 656.157 680.164 656.294 679.031 656.294C678.143 656.294 677.254 656.177 676.365 655.942C675.477 655.698 674.666 655.327 673.934 654.829C673.201 654.321 672.61 653.677 672.161 652.895C671.722 652.104 671.502 651.162 671.502 650.068H676.453C676.453 650.517 676.575 650.928 676.819 651.299C677.073 651.66 677.41 651.948 677.83 652.163C678.25 652.378 678.704 652.485 679.192 652.485C679.798 652.485 680.311 652.373 680.73 652.148C681.16 651.914 681.487 651.601 681.712 651.211C681.937 650.82 682.049 650.386 682.049 649.907C682.049 649.184 681.927 648.608 681.683 648.178C681.448 647.749 681.102 647.436 680.643 647.241C680.193 647.046 679.651 646.948 679.017 646.948H676.614Z" fill="#F1F1F1" fill-opacity="0.5"/>
</g>
<g id="trofeu">
<path id="Vector" d="M477.395 591C477.395 595.126 477.395 606.679 477.395 611.63C477.395 628.547 492.345 635.148 500.5 635.148C508.655 635.148 523.606 628.547 523.606 611.63C523.606 606.679 523.606 595.126 523.606 591H477.395ZM500.544 598.609L490.284 603.089V617.911L490.277 620.851C490.197 620.834 483.161 619.329 483.161 609.052C483.161 604.812 483.161 598.576 483.161 598.576H492.25L500.544 598.609Z" fill="#F1F1F1" fill-opacity="0.1"/>
<path id="Vector_2" d="M509.452 651.313L505.871 646.311L504.081 638.939L500.5 639.466L496.92 638.939L495.129 646.311L492.876 649.458L491.549 651.277H491.575L491.549 651.313H509.452Z" fill="#F1F1F1" fill-opacity="0.1"/>
<path id="Vector_3" d="M517.197 656.059V656.023H483.804V668.003V668.028V668.064H517.197V656.083V656.059Z" fill="#F1F1F1" fill-opacity="0.1"/>
<path id="Vector_4" d="M538.977 605.55C538.972 605.359 538.967 605.198 538.967 605.072V597.788H527.846V603.619H533.137V605.072C533.137 605.242 533.142 605.457 533.149 605.713C533.208 607.817 533.346 612.743 529.907 616.28C529.136 617.072 528.218 617.753 527.164 618.329C526.58 620.983 525.643 623.381 524.439 625.526C528.437 624.561 531.668 622.832 534.087 620.344C539.243 615.042 539.05 608.146 538.977 605.55Z" fill="#F1F1F1" fill-opacity="0.1"/>
<path id="Vector_5" d="M471.093 616.28C467.654 612.743 467.792 607.817 467.851 605.713C467.858 605.457 467.863 605.242 467.863 605.072V603.619H473.107H473.118H473.154V597.788H462.033V605.072C462.033 605.198 462.028 605.359 462.023 605.55C461.95 608.146 461.758 615.042 466.913 620.345C469.332 622.832 472.562 624.561 476.56 625.526C475.357 623.381 474.42 620.983 473.835 618.329C472.782 617.753 471.864 617.072 471.093 616.28Z" fill="#F1F1F1" fill-opacity="0.1"/>
</g>
</g>
</g>
<defs>
<filter id="filter0_d_56_102" x="251.043" y="473.205" width="131.168" height="148.727" filterUnits="userSpaceOnUse" color-interpolation-filters="sRGB">
<feFlood flood-opacity="0" result="BackgroundImageFix"/>
<feColorMatrix in="SourceAlpha" type="matrix" values="0 0 0 0 0 0 0 0 0 0 0 0 0 0 0 0 0 0 127 0" result="hardAlpha"/>
<feOffset/>
<feGaussianBlur stdDeviation="4.25814"/>
<feComposite in2="hardAlpha" operator="out"/>
<feColorMatrix type="matrix" values="0 0 0 0 0 0 0 0 0 0 0 0 0 0 0 0 0 0 0.1 0"/>
<feBlend mode="normal" in2="BackgroundImageFix" result="effect1_dropShadow_56_102"/>
<feBlend mode="normal" in="SourceGraphic" in2="effect1_dropShadow_56_102" result="shape"/>
</filter>
<filter id="filter1_d_56_102" x="435.416" y="414.382" width="131.168" height="148.727" filterUnits="userSpaceOnUse" color-interpolation-filters="sRGB">
<feFlood flood-opacity="0" result="BackgroundImageFix"/>
<feColorMatrix in="SourceAlpha" type="matrix" values="0 0 0 0 0 0 0 0 0 0 0 0 0 0 0 0 0 0 127 0" result="hardAlpha"/>
<feOffset/>
<feGaussianBlur stdDeviation="4.25814"/>
<feComposite in2="hardAlpha" operator="out"/>
<feColorMatrix type="matrix" values="0 0 0 0 0 0 0 0 0 0 0 0 0 0 0 0 0 0 0.1 0"/>
<feBlend mode="normal" in2="BackgroundImageFix" result="effect1_dropShadow_56_102"/>
<feBlend mode="normal" in="SourceGraphic" in2="effect1_dropShadow_56_102" result="shape"/>
</filter>
<filter id="filter2_d_56_102" x="611.887" y="474.961" width="131.168" height="148.727" filterUnits="userSpaceOnUse" color-interpolation-filters="sRGB">
<feFlood flood-opacity="0" result="BackgroundImageFix"/>
<feColorMatrix in="SourceAlpha" type="matrix" values="0 0 0 0 0 0 0 0 0 0 0 0 0 0 0 0 0 0 127 0" result="hardAlpha"/>
<feOffset/>
<feGaussianBlur stdDeviation="4.25814"/>
<feComposite in2="hardAlpha" operator="out"/>
<feColorMatrix type="matrix" values="0 0 0 0 0 0 0 0 0 0 0 0 0 0 0 0 0 0 0.1 0"/>
<feBlend mode="normal" in2="BackgroundImageFix" result="effect1_dropShadow_56_102"/>
<feBlend mode="normal" in="SourceGraphic" in2="effect1_dropShadow_56_102" result="shape"/>
</filter>
<linearGradient id="paint0_linear_56_102" x1="230" y1="256" x2="357.908" y2="799.361" gradientUnits="userSpaceOnUse">
<stop stop-color="#3F1260" stop-opacity="0.5"/>
<stop offset="0.510417" stop-color="#3F1260" stop-opacity="0.5"/>
<stop offset="1" stop-color="#3F1260" stop-opacity="0.3"/>
</linearGradient>
<linearGradient id="paint1_linear_56_102" x1="610" y1="70" x2="666.471" y2="268.326" gradientUnits="userSpaceOnUse">
<stop stop-color="#3F1260" stop-opacity="0.5"/>
<stop offset="0.510417" stop-color="#3F1260" stop-opacity="0.5"/>
<stop offset="1" stop-color="#3F1260" stop-opacity="0.3"/>
</linearGradient>
<linearGradient id="paint2_linear_56_102" x1="420" y1="70" x2="476.471" y2="268.326" gradientUnits="userSpaceOnUse">
<stop stop-color="#3F1260" stop-opacity="0.5"/>
<stop offset="0.510417" stop-color="#3F1260" stop-opacity="0.5"/>
<stop offset="1" stop-color="#3F1260" stop-opacity="0.3"/>
</linearGradient>
<linearGradient id="paint3_linear_56_102" x1="230" y1="70" x2="286.471" y2="268.326" gradientUnits="userSpaceOnUse">
<stop stop-color="#3F1260" stop-opacity="0.5"/>
<stop offset="0.510417" stop-color="#3F1260" stop-opacity="0.5"/>
<stop offset="1" stop-color="#3F1260" stop-opacity="0.3"/>
</linearGradient>
<linearGradient id="paint4_linear_56_102" x1="259.56" y1="530.01" x2="373.695" y2="530.01" gradientUnits="userSpaceOnUse">
<stop stop-color="#466B89"/>
<stop offset="0.2501" stop-color="#1B3F5B"/>
<stop offset="1" stop-color="#466B89"/>
</linearGradient>
<linearGradient id="paint5_linear_56_102" x1="259.56" y1="530.01" x2="373.695" y2="530.01" gradientUnits="userSpaceOnUse">
<stop stop-color="#451D60"/>
<stop offset="0.2501" stop-color="#301045"/>
<stop offset="0.745774" stop-color="#36104E"/>
<stop offset="1" stop-color="#451D60"/>
</linearGradient>
<linearGradient id="paint6_linear_56_102" x1="382.475" y1="530.01" x2="373.695" y2="530.01" gradientUnits="userSpaceOnUse">
<stop stop-color="#5D2D7C"/>
<stop offset="1" stop-color="#451D60"/>
</linearGradient>
<linearGradient id="paint7_linear_56_102" x1="250.78" y1="530.01" x2="259.56" y2="530.01" gradientUnits="userSpaceOnUse">
<stop stop-color="#5D2D7C"/>
<stop offset="1" stop-color="#451D60"/>
</linearGradient>
<linearGradient id="paint8_linear_56_102" x1="443.933" y1="471.186" x2="558.068" y2="471.186" gradientUnits="userSpaceOnUse">
<stop stop-color="#466B89"/>
<stop offset="0.2501" stop-color="#1B3F5B"/>
<stop offset="1" stop-color="#466B89"/>
</linearGradient>
<linearGradient id="paint9_linear_56_102" x1="443.933" y1="471.186" x2="558.068" y2="471.186" gradientUnits="userSpaceOnUse">
<stop stop-color="#451D60"/>
<stop offset="0.2501" stop-color="#301045"/>
<stop offset="0.745774" stop-color="#36104E"/>
<stop offset="1" stop-color="#451D60"/>
</linearGradient>
<linearGradient id="paint10_linear_56_102" x1="566.848" y1="471.187" x2="558.068" y2="471.187" gradientUnits="userSpaceOnUse">
<stop stop-color="#5D2D7C"/>
<stop offset="1" stop-color="#5D2D7C"/>
</linearGradient>
<linearGradient id="paint11_linear_56_102" x1="435.153" y1="471.187" x2="443.933" y2="471.187" gradientUnits="userSpaceOnUse">
<stop stop-color="#5D2D7C"/>
<stop offset="1" stop-color="#5D2D7C"/>
</linearGradient>
<linearGradient id="paint12_linear_56_102" x1="620.403" y1="531.766" x2="734.539" y2="531.766" gradientUnits="userSpaceOnUse">
<stop stop-color="#466B89"/>
<stop offset="0.2501" stop-color="#1B3F5B"/>
<stop offset="1" stop-color="#466B89"/>
</linearGradient>
<linearGradient id="paint13_linear_56_102" x1="620.403" y1="531.766" x2="734.539" y2="531.766" gradientUnits="userSpaceOnUse">
<stop stop-color="#451D60"/>
<stop offset="0.2501" stop-color="#301045"/>
<stop offset="0.745774" stop-color="#36104E"/>
<stop offset="1" stop-color="#451D60"/>
</linearGradient>
<linearGradient id="paint14_linear_56_102" x1="743.319" y1="531.766" x2="734.539" y2="531.766" gradientUnits="userSpaceOnUse">
<stop stop-color="#5D2D7C"/>
<stop offset="1" stop-color="#5D2D7C"/>
</linearGradient>
<linearGradient id="paint15_linear_56_102" x1="611.624" y1="531.766" x2="620.403" y2="531.766" gradientUnits="userSpaceOnUse">
<stop stop-color="#5D2D7C"/>
<stop offset="1" stop-color="#5D2D7C"/>
</linearGradient>
<linearGradient id="paint16_linear_56_102" x1="360.525" y1="619.124" x2="360.525" y2="670.485" gradientUnits="userSpaceOnUse">
<stop stop-color="#210633"/>
<stop offset="1" stop-color="#491F65"/>
</linearGradient>
<linearGradient id="paint17_linear_56_102" x1="360.525" y1="590.591" x2="360.525" y2="619.125" gradientUnits="userSpaceOnUse">
<stop stop-color="#491F65"/>
<stop offset="1" stop-color="#210633"/>
</linearGradient>
<linearGradient id="paint18_linear_56_102" x1="634.451" y1="619.124" x2="634.451" y2="670.485" gradientUnits="userSpaceOnUse">
<stop stop-color="#210633"/>
<stop offset="1" stop-color="#491F65"/>
</linearGradient>
<linearGradient id="paint19_linear_56_102" x1="634.451" y1="590.591" x2="634.451" y2="619.125" gradientUnits="userSpaceOnUse">
<stop stop-color="#491F65"/>
<stop offset="1" stop-color="#210633"/>
</linearGradient>
<linearGradient id="paint20_linear_56_102" x1="501" y1="576.544" x2="501" y2="679.266" gradientUnits="userSpaceOnUse">
<stop stop-color="#210633"/>
<stop offset="1" stop-color="#491F65"/>
</linearGradient>
<linearGradient id="paint21_linear_56_102" x1="501" y1="548.01" x2="501" y2="576.544" gradientUnits="userSpaceOnUse">
<stop stop-color="#491F65"/>
<stop offset="1" stop-color="#210633"/>
</linearGradient>
<clipPath id="clip0_56_102">
<rect width="1280" height="720" fill="white"/>
</clipPath>
<clipPath id="clip1_56_102">
<rect width="149.254" height="175.593" fill="white" transform="translate(242 437.824)"/>
</clipPath>
<clipPath id="clip2_56_102">
<rect width="149.254" height="175.593" fill="white" transform="translate(426.373 379)"/>
</clipPath>
<clipPath id="clip3_56_102">
<rect width="149.254" height="175.593" fill="white" transform="translate(602.844 439.58)"/>
</clipPath>
</defs>
</svg>
